<?xml version="1.0" encoding="UTF-8" standalone="no"?>
<!-- Created with Inkscape (http://www.inkscape.org/) -->

<svg
   width="58.208332mm"
   height="58.208332mm"
   viewBox="0 0 58.208332 58.208332"
   version="1.1"
   id="svg1"
   xml:space="preserve"
   inkscape:export-batch-path="/Users/cobbler/Downloads"
   inkscape:export-batch-name="black"
   inkscape:version="1.4.2 (ebf0e940, 2025-05-08)"
   sodipodi:docname="drawing.svg"
   inkscape:export-filename="../black_MSSQL_ServerRole.png"
   inkscape:export-xdpi="96"
   inkscape:export-ydpi="96"
   xmlns:inkscape="http://www.inkscape.org/namespaces/inkscape"
   xmlns:sodipodi="http://sodipodi.sourceforge.net/DTD/sodipodi-0.dtd"
   xmlns="http://www.w3.org/2000/svg"
   xmlns:svg="http://www.w3.org/2000/svg"><sodipodi:namedview
     id="namedview1"
     pagecolor="#ffffff"
     bordercolor="#000000"
     borderopacity="0.25"
     inkscape:showpageshadow="2"
     inkscape:pageopacity="0.0"
     inkscape:pagecheckerboard="0"
     inkscape:deskcolor="#d1d1d1"
     inkscape:document-units="mm"
     inkscape:zoom="0.89887065"
     inkscape:cx="396.05254"
     inkscape:cy="561.25984"
     inkscape:window-width="1920"
     inkscape:window-height="1186"
     inkscape:window-x="0"
     inkscape:window-y="25"
     inkscape:window-maximized="0"
     inkscape:current-layer="g2" /><defs
     id="defs1" /><g
     inkscape:label="SNOWIntegration"
     id="g38"
     transform="translate(-75.215628,-113.55704)"
     style="display:inline"
     inkscape:highlight-color="#bfffd1"
     inkscape:groupmode="layer"><circle
       style="display:inline;fill:#000000;fill-opacity:1;stroke:none;stroke-width:2.64583;stroke-dasharray:none;paint-order:fill markers stroke"
       id="circle37"
       cx="104.31979"
       cy="142.66121"
       r="29.104166"
       inkscape:label="BlackBorder" /><circle
       style="display:inline;fill:#bfffd1;fill-opacity:1;stroke:none;stroke-width:2.28503;stroke-dasharray:none;paint-order:fill markers stroke"
       id="circle38"
       cx="104.31979"
       cy="142.66121"
       inkscape:label="#BFFFD1"
       r="25.135416" /><path
       d="m 95.890825,132.77077 a 8.3843616,9.2164833 0 1 0 16.768705,0 8.3843616,9.2164833 0 1 0 -16.768705,0 z m 6.190015,14.41515 1.21836,2.23211 -2.18125,8.92128 -2.3581,-10.57736 c -0.131013,-0.58324 -0.641938,-0.96486 -1.172502,-0.81364 -4.58519,1.26006 -7.984793,5.8251 -7.984793,11.26138 0,1.22407 0.903932,2.21052 2.010934,2.21052 h 8.626711 c 0,0 0,0 0.006,0 h 0.36026 7.33633 0.36026 c 0,0 0,0 0.006,0 h 8.62672 c 1.11355,0 2.01093,-0.99366 2.01093,-2.21052 0,-5.43628 -3.3996,-10.00132 -7.98479,-11.26138 -0.53058,-0.14402 -1.04149,0.23761 -1.1725,0.81364 l -2.35811,10.57736 -2.18124,-8.92128 1.21835,-2.23211 c 0.41923,-0.77045 -0.0851,-1.74249 -0.89739,-1.74249 h -1.29696 -1.29039 c -0.81224,0 -1.31662,0.97925 -0.89739,1.74249 z"
       id="path38"
       style="stroke-width:0.0686763"
       inkscape:label="user-tie" /></g></svg>
