<?xml version="1.0" encoding="UTF-8" standalone="no"?>
<!-- Created with Inkscape (http://www.inkscape.org/) -->

<svg
   width="58.208332mm"
   height="58.208332mm"
   viewBox="0 0 58.208332 58.208332"
   version="1.1"
   id="svg1"
   xml:space="preserve"
   inkscape:export-batch-path="/Users/cobbler/Downloads"
   inkscape:export-batch-name="black"
   inkscape:version="1.4.2 (ebf0e940, 2025-05-08)"
   sodipodi:docname="drawing.svg"
   inkscape:export-filename="../black_MSSQL_ServerRole.png"
   inkscape:export-xdpi="96"
   inkscape:export-ydpi="96"
   xmlns:inkscape="http://www.inkscape.org/namespaces/inkscape"
   xmlns:sodipodi="http://sodipodi.sourceforge.net/DTD/sodipodi-0.dtd"
   xmlns="http://www.w3.org/2000/svg"
   xmlns:svg="http://www.w3.org/2000/svg"><sodipodi:namedview
     id="namedview1"
     pagecolor="#ffffff"
     bordercolor="#000000"
     borderopacity="0.25"
     inkscape:showpageshadow="2"
     inkscape:pageopacity="0.0"
     inkscape:pagecheckerboard="0"
     inkscape:deskcolor="#d1d1d1"
     inkscape:document-units="mm"
     inkscape:zoom="0.89887065"
     inkscape:cx="396.05254"
     inkscape:cy="561.25984"
     inkscape:window-width="1920"
     inkscape:window-height="1186"
     inkscape:window-x="0"
     inkscape:window-y="25"
     inkscape:window-maximized="0"
     inkscape:current-layer="g2" /><defs
     id="defs1" /><g
     inkscape:label="SNOWDatabase"
     id="g43"
     transform="translate(-75.215628,-113.55704)"
     style="display:inline"
     inkscape:highlight-color="#ff80d2"
     inkscape:groupmode="layer"><circle
       style="display:inline;fill:#000000;fill-opacity:1;stroke:none;stroke-width:2.64583;stroke-dasharray:none;paint-order:fill markers stroke"
       id="circle42"
       cx="104.31979"
       cy="142.66121"
       r="29.104166"
       inkscape:label="BlackBorder" /><circle
       style="display:inline;fill:#ff80d2;fill-opacity:1;stroke:none;stroke-width:2.28503;stroke-dasharray:none;paint-order:fill markers stroke"
       id="circle43"
       cx="104.31979"
       cy="142.66121"
       inkscape:label="#FF80D2"
       r="25.135416" /><path
       d="m 118.74269,139.69115 c -0.95971,0.72241 -2.06208,1.30475 -3.20984,1.76916 -3.04773,1.23842 -7.04868,1.93134 -11.31549,1.93134 -4.266823,0 -8.274269,-0.70029 -11.315506,-1.93134 -1.141278,-0.46441 -2.250133,-1.04675 -3.209844,-1.76916 v 6.05939 c 0,3.25821 6.503982,5.89721 14.52535,5.89721 8.02136,0 14.52533,-2.639 14.52533,-5.89721 z m 0,-5.73505 v -3.53833 c 0,-3.2582 -6.50397,-5.89721 -14.52533,-5.89721 -8.021368,0 -14.52535,2.63901 -14.52535,5.89721 v 3.53833 c 0,3.25822 6.503982,5.89722 14.52535,5.89722 8.02136,0 14.52533,-2.639 14.52533,-5.89722 z m -3.20984,19.29865 c -3.04124,1.23104 -7.04219,1.93133 -11.31549,1.93133 -4.273313,0 -8.274269,-0.70029 -11.315506,-1.93133 -1.141278,-0.46442 -2.250133,-1.04677 -3.209844,-1.76917 v 4.87994 c 0,3.25822 6.503982,5.89722 14.52535,5.89722 8.02136,0 14.52533,-2.639 14.52533,-5.89722 v -4.87994 c -0.95971,0.7224 -2.06208,1.30475 -3.20984,1.76917 z"
       id="path1-9"
       style="stroke-width:0.0691381"
       inkscape:label="database" /></g></svg>
