<?xml version="1.0" encoding="UTF-8" standalone="no"?>
<!-- Created with Inkscape (http://www.inkscape.org/) -->

<svg
   width="58.208332mm"
   height="58.208332mm"
   viewBox="0 0 58.208332 58.208332"
   version="1.1"
   id="svg1"
   xml:space="preserve"
   inkscape:export-batch-path="/Users/cobbler/Downloads"
   inkscape:export-batch-name="black"
   inkscape:version="1.4.2 (ebf0e940, 2025-05-08)"
   sodipodi:docname="drawing.svg"
   inkscape:export-filename="../black_MSSQL_ServerRole.png"
   inkscape:export-xdpi="96"
   inkscape:export-ydpi="96"
   xmlns:inkscape="http://www.inkscape.org/namespaces/inkscape"
   xmlns:sodipodi="http://sodipodi.sourceforge.net/DTD/sodipodi-0.dtd"
   xmlns="http://www.w3.org/2000/svg"
   xmlns:svg="http://www.w3.org/2000/svg"><sodipodi:namedview
     id="namedview1"
     pagecolor="#ffffff"
     bordercolor="#000000"
     borderopacity="0.25"
     inkscape:showpageshadow="2"
     inkscape:pageopacity="0.0"
     inkscape:pagecheckerboard="0"
     inkscape:deskcolor="#d1d1d1"
     inkscape:document-units="mm"
     inkscape:zoom="0.89887065"
     inkscape:cx="396.05254"
     inkscape:cy="561.25984"
     inkscape:window-width="1920"
     inkscape:window-height="1186"
     inkscape:window-x="0"
     inkscape:window-y="25"
     inkscape:window-maximized="0"
     inkscape:current-layer="g2" /><defs
     id="defs1" /><g
     inkscape:label="SNOWAccount"
     id="g39"
     transform="translate(-75.215628,-113.55704)"
     style="display:inline"
     inkscape:highlight-color="#5fed83"
     inkscape:groupmode="layer"><circle
       style="display:inline;fill:#000000;fill-opacity:1;stroke:none;stroke-width:2.64583;stroke-dasharray:none;paint-order:fill markers stroke"
       id="circle39"
       cx="104.31979"
       cy="142.66121"
       r="29.104166"
       inkscape:label="BlackBorder" /><ellipse
       style="display:inline;fill:#5fed83;fill-opacity:1;stroke:none;stroke-width:2.285;stroke-dasharray:none;paint-order:fill markers stroke"
       id="ellipse39"
       cx="104.31979"
       cy="142.66121"
       inkscape:label="#5FED83"
       rx="25.135"
       ry="25.135416" /><path
       d="m 93.769534,124.14039 c -1.917195,0 -3.472656,1.55546 -3.472656,3.47266 v 30.09635 c 0,1.91719 1.555461,3.47266 3.472656,3.47266 h 6.945316 v -5.78776 c 0,-1.9172 1.55546,-3.47266 3.47265,-3.47266 1.9172,0 3.47266,1.55546 3.47266,3.47266 v 5.78776 h 6.94531 c 1.9172,0 3.47266,-1.55547 3.47266,-3.47266 v -30.09635 c 0,-1.9172 -1.55546,-3.47266 -3.47266,-3.47266 z m 1.157552,17.36328 c 0,-0.63665 0.520899,-1.15755 1.157552,-1.15755 h 2.315105 c 0.636653,0 1.157551,0.5209 1.157551,1.15755 v 2.31511 c 0,0.63665 -0.520898,1.15755 -1.157551,1.15755 h -2.315105 c -0.636653,0 -1.157552,-0.5209 -1.157552,-1.15755 z m 8.102864,-1.15755 h 2.3151 c 0.63666,0 1.15755,0.5209 1.15755,1.15755 v 2.31511 c 0,0.63665 -0.52089,1.15755 -1.15755,1.15755 h -2.3151 c -0.63665,0 -1.15755,-0.5209 -1.15755,-1.15755 v -2.31511 c 0,-0.63665 0.5209,-1.15755 1.15755,-1.15755 z m 5.78776,1.15755 c 0,-0.63665 0.5209,-1.15755 1.15755,-1.15755 h 2.31511 c 0.63665,0 1.15755,0.5209 1.15755,1.15755 v 2.31511 c 0,0.63665 -0.5209,1.15755 -1.15755,1.15755 h -2.31511 c -0.63665,0 -1.15755,-0.5209 -1.15755,-1.15755 z M 96.084638,131.0857 h 2.315105 c 0.636653,0 1.157551,0.5209 1.157551,1.15755 v 2.31511 c 0,0.63665 -0.520898,1.15755 -1.157551,1.15755 h -2.315105 c -0.636653,0 -1.157552,-0.5209 -1.157552,-1.15755 v -2.31511 c 0,-0.63665 0.520899,-1.15755 1.157552,-1.15755 z m 5.787762,1.15755 c 0,-0.63665 0.5209,-1.15755 1.15755,-1.15755 h 2.3151 c 0.63666,0 1.15755,0.5209 1.15755,1.15755 v 2.31511 c 0,0.63665 -0.52089,1.15755 -1.15755,1.15755 h -2.3151 c -0.63665,0 -1.15755,-0.5209 -1.15755,-1.15755 z m 8.10286,-1.15755 h 2.31511 c 0.63665,0 1.15755,0.5209 1.15755,1.15755 v 2.31511 c 0,0.63665 -0.5209,1.15755 -1.15755,1.15755 h -2.31511 c -0.63665,0 -1.15755,-0.5209 -1.15755,-1.15755 v -2.31511 c 0,-0.63665 0.5209,-1.15755 1.15755,-1.15755 z"
       id="path39"
       style="display:inline;stroke-width:0.0723469"
       inkscape:label="building" /></g></svg>
