<?xml version="1.0" encoding="UTF-8" standalone="no"?>
<!-- Created with Inkscape (http://www.inkscape.org/) -->

<svg
   width="58.208332mm"
   height="58.208332mm"
   viewBox="0 0 58.208332 58.208332"
   version="1.1"
   id="svg1"
   xml:space="preserve"
   inkscape:export-batch-path="/Users/cobbler/Downloads"
   inkscape:export-batch-name="black"
   inkscape:version="1.4.2 (ebf0e940, 2025-05-08)"
   sodipodi:docname="drawing.svg"
   inkscape:export-filename="../black_MSSQL_ServerRole.png"
   inkscape:export-xdpi="96"
   inkscape:export-ydpi="96"
   xmlns:inkscape="http://www.inkscape.org/namespaces/inkscape"
   xmlns:sodipodi="http://sodipodi.sourceforge.net/DTD/sodipodi-0.dtd"
   xmlns="http://www.w3.org/2000/svg"
   xmlns:svg="http://www.w3.org/2000/svg"><sodipodi:namedview
     id="namedview1"
     pagecolor="#ffffff"
     bordercolor="#000000"
     borderopacity="0.25"
     inkscape:showpageshadow="2"
     inkscape:pageopacity="0.0"
     inkscape:pagecheckerboard="0"
     inkscape:deskcolor="#d1d1d1"
     inkscape:document-units="mm"
     inkscape:zoom="0.89887065"
     inkscape:cx="396.05254"
     inkscape:cy="561.25984"
     inkscape:window-width="1920"
     inkscape:window-height="1186"
     inkscape:window-x="0"
     inkscape:window-y="25"
     inkscape:window-maximized="0"
     inkscape:current-layer="g2" /><defs
     id="defs1" /><g
     inkscape:label="SNOWWarehouse"
     id="g45"
     style="display:inline"
     inkscape:highlight-color="#9eecff"
     inkscape:groupmode="layer"
     transform="translate(-75.215628,-113.55704)"><circle
       style="display:inline;fill:#000000;fill-opacity:1;stroke:none;stroke-width:2.64583;stroke-dasharray:none;paint-order:fill markers stroke"
       id="circle44"
       cx="104.31979"
       cy="142.66121"
       r="29.104166"
       inkscape:label="BlackBorder" /><circle
       style="display:inline;fill:#9eecff;fill-opacity:1;stroke:none;stroke-width:2.28503;stroke-dasharray:none;paint-order:fill markers stroke"
       id="circle45"
       cx="104.31979"
       cy="142.66121"
       inkscape:label="#9EECFF"
       r="25.135416" /><path
       d="m 86.834934,133.80894 v 23.01392 c 0,1.20553 0.867781,2.17948 1.941889,2.17948 1.074108,0 1.941891,-0.97395 1.941891,-2.17948 v -16.34607 c 0,-1.20553 0.867781,-2.17949 1.941889,-2.17949 h 23.302677 c 1.07411,0 1.94189,0.97396 1.94189,2.17949 v 16.34607 c 0,1.20553 0.86778,2.17948 1.94189,2.17948 1.07411,0 1.94189,-0.97395 1.94189,-2.17948 v -23.01392 c 0,-1.87298 -1.06804,-3.54164 -2.65796,-4.13419 l -13.89665,-5.19669 c -0.60077,-0.22476 -1.24402,-0.22476 -1.84479,0 l -13.896654,5.19669 c -1.589923,0.59255 -2.657962,2.26121 -2.657962,4.13419 z m 28.157406,7.75758 H 93.631547 v 4.35896 h 21.360793 z m -21.360793,10.89739 h 21.360793 v -4.35896 H 93.631547 Z m 21.360793,2.17948 H 93.631547 v 4.35895 h 21.360793 z"
       id="path1-5"
       style="stroke-width:0.0642892"
       inkscape:label="warehouse" /></g></svg>
