<?xml version="1.0" encoding="UTF-8" standalone="no"?>
<!-- Created with Inkscape (http://www.inkscape.org/) -->

<svg
   width="58.208332mm"
   height="58.208332mm"
   viewBox="0 0 58.208332 58.208332"
   version="1.1"
   id="svg1"
   xml:space="preserve"
   inkscape:export-batch-path="/Users/cobbler/Downloads"
   inkscape:export-batch-name="black"
   inkscape:version="1.4.2 (ebf0e940, 2025-05-08)"
   sodipodi:docname="drawing.svg"
   inkscape:export-filename="../black_MSSQL_ServerRole.png"
   inkscape:export-xdpi="96"
   inkscape:export-ydpi="96"
   xmlns:inkscape="http://www.inkscape.org/namespaces/inkscape"
   xmlns:sodipodi="http://sodipodi.sourceforge.net/DTD/sodipodi-0.dtd"
   xmlns="http://www.w3.org/2000/svg"
   xmlns:svg="http://www.w3.org/2000/svg"><sodipodi:namedview
     id="namedview1"
     pagecolor="#ffffff"
     bordercolor="#000000"
     borderopacity="0.25"
     inkscape:showpageshadow="2"
     inkscape:pageopacity="0.0"
     inkscape:pagecheckerboard="0"
     inkscape:deskcolor="#d1d1d1"
     inkscape:document-units="mm"
     inkscape:zoom="0.89887065"
     inkscape:cx="396.05254"
     inkscape:cy="561.25984"
     inkscape:window-width="1920"
     inkscape:window-height="1186"
     inkscape:window-x="0"
     inkscape:window-y="25"
     inkscape:window-maximized="0"
     inkscape:current-layer="g2" /><defs
     id="defs1" /><g
     inkscape:label="SNOWRole"
     id="g41"
     transform="translate(-75.215628,-113.55704)"
     style="display:inline"
     inkscape:highlight-color="#c06eff"
     inkscape:groupmode="layer"><circle
       style="display:inline;fill:#000000;fill-opacity:1;stroke:none;stroke-width:2.64583;stroke-dasharray:none;paint-order:fill markers stroke"
       id="circle41"
       cx="104.31979"
       cy="142.66121"
       r="29.104166"
       inkscape:label="BlackBorder" /><ellipse
       style="display:inline;fill:#c06eff;fill-opacity:1;stroke:none;stroke-width:2.285;stroke-dasharray:none;paint-order:fill markers stroke"
       id="ellipse41"
       cx="104.31979"
       cy="142.66121"
       inkscape:label="#C06EFF"
       rx="25.135"
       ry="25.135416" /><path
       d="m 90.467851,131.80192 c 0,-4.51246 3.14268,-8.16471 7.02555,-8.16471 3.882879,0 7.025559,3.65225 7.025559,8.16471 0,4.51246 -3.14268,8.16471 -7.025559,8.16471 -3.88287,0 -7.02555,-3.65225 -7.02555,-8.16471 z m -4.0146,24.49414 c 0,-7.0858 4.94298,-12.83027 11.04015,-12.83027 6.097179,0 11.040159,5.74447 11.040159,12.83027 v 0.4374 c 0,1.69125 -1.17929,3.06176 -2.63458,3.06176 H 89.087831 c -1.45529,0 -2.63458,-1.37051 -2.63458,-3.06176 z m 27.098559,-29.15969 c 3.3246,0 6.02191,3.13467 6.02191,6.99833 0,3.86365 -2.69731,6.99832 -6.02191,6.99832 -3.32459,0 -6.0219,-3.13467 -6.0219,-6.99832 0,-3.86366 2.69731,-6.99833 6.0219,-6.99833 z m 0,17.49582 c 4.98689,0 9.03286,4.70199 9.03286,10.49747 v 1.63295 c 0,1.67668 -1.16674,3.03261 -2.60949,3.03261 h -9.08304 c 0.41401,-0.91124 0.65237,-1.9537 0.65237,-3.06176 v -0.4374 c 0,-3.75431 -1.09147,-7.20973 -2.91686,-9.96532 1.41766,-1.07163 3.11132,-1.69855 4.92416,-1.69855 z"
       id="path41"
       style="stroke-width:0.0676227"
       inkscape:label="user-group" /></g></svg>
