<?xml version="1.0" encoding="UTF-8" standalone="no"?>
<!-- Created with Inkscape (http://www.inkscape.org/) -->

<svg
   width="58.208332mm"
   height="58.208332mm"
   viewBox="0 0 58.208332 58.208332"
   version="1.1"
   id="svg1"
   xml:space="preserve"
   inkscape:export-batch-path="/Users/cobbler/Downloads"
   inkscape:export-batch-name="black"
   inkscape:version="1.4.2 (ebf0e940, 2025-05-08)"
   sodipodi:docname="drawing.svg"
   inkscape:export-filename="../black_MSSQL_ServerRole.png"
   inkscape:export-xdpi="96"
   inkscape:export-ydpi="96"
   xmlns:inkscape="http://www.inkscape.org/namespaces/inkscape"
   xmlns:sodipodi="http://sodipodi.sourceforge.net/DTD/sodipodi-0.dtd"
   xmlns="http://www.w3.org/2000/svg"
   xmlns:svg="http://www.w3.org/2000/svg"><sodipodi:namedview
     id="namedview1"
     pagecolor="#ffffff"
     bordercolor="#000000"
     borderopacity="0.25"
     inkscape:showpageshadow="2"
     inkscape:pageopacity="0.0"
     inkscape:pagecheckerboard="0"
     inkscape:deskcolor="#d1d1d1"
     inkscape:document-units="mm"
     inkscape:zoom="0.89887065"
     inkscape:cx="396.05254"
     inkscape:cy="561.25984"
     inkscape:window-width="1920"
     inkscape:window-height="1186"
     inkscape:window-x="0"
     inkscape:window-y="25"
     inkscape:window-maximized="0"
     inkscape:current-layer="g2" /><defs
     id="defs1" /><g
     inkscape:label="SNOWSchema"
     id="g88"
     transform="translate(-75.215628,-113.55704)"
     style="display:inline"
     inkscape:highlight-color="#defefa"
     inkscape:groupmode="layer"><circle
       style="display:inline;fill:#000000;fill-opacity:1;stroke:none;stroke-width:2.64583;stroke-dasharray:none;paint-order:fill markers stroke"
       id="circle87"
       cx="104.31979"
       cy="142.66121"
       r="29.104166"
       inkscape:label="BlackBorder" /><circle
       style="display:inline;fill:#defefa;fill-opacity:1;stroke:none;stroke-width:2.28503;stroke-dasharray:none;paint-order:fill markers stroke"
       id="circle88"
       cx="104.31979"
       cy="142.66121"
       inkscape:label="#DEFEFA"
       r="25.135416" /><path
       d="m 101.41985,127.50213 h 5.67236 v 3.93256 h -5.67236 z m -0.56724,-4.58797 c -1.87897,0 -3.403421,1.76146 -3.403421,3.93255 v 5.2434 c 0,2.17109 1.524451,3.93255 3.403421,3.93255 h 1.13448 v 2.6217 H 86.104461 c -1.255011,0 -2.268946,1.17157 -2.268946,2.6217 0,1.45013 1.013935,2.6217 2.268946,2.6217 h 6.806838 v 2.62169 h -1.134472 c -1.878971,0 -3.40342,1.76146 -3.40342,3.93256 v 5.24339 c 0,2.1711 1.524449,3.93255 3.40342,3.93255 h 6.806839 c 1.878974,0 3.403424,-1.76145 3.403424,-3.93255 v -5.24339 c 0,-2.1711 -1.52445,-3.93256 -3.403424,-3.93256 h -1.134477 v -2.62169 h 13.613681 v 2.62169 h -1.13448 c -1.87897,0 -3.40342,1.76146 -3.40342,3.93256 v 5.24339 c 0,2.1711 1.52445,3.93255 3.40342,3.93255 h 6.80684 c 1.87897,0 3.40342,-1.76145 3.40342,-3.93255 v -5.24339 c 0,-2.1711 -1.52445,-3.93256 -3.40342,-3.93256 h -1.13447 v -2.62169 h 6.80684 c 1.25501,0 2.26894,-1.17157 2.26894,-2.6217 0,-1.45013 -1.01393,-2.6217 -2.26894,-2.6217 h -15.88263 v -2.6217 h 1.13448 c 1.87897,0 3.40342,-1.76146 3.40342,-3.93255 v -5.2434 c 0,-2.17109 -1.52445,-3.93255 -3.40342,-3.93255 z m 14.74815,28.18327 h 0.56724 v 3.93255 h -5.67237 v -3.93255 z m -18.151571,0 h 0.567239 v 3.93255 h -5.672365 v -3.93255 z"
       id="path1-04"
       style="stroke-width:0.0762173"
       inkscape:label="network-wired" /></g></svg>
